<?xml version="1.0" encoding="UTF-8"?>
<!-- Generated by SVGo -->
<svg width="438.627mm" height="133.827mm" viewBox="0.000 0.000 438.627 133.827" xmlns="http://www.w3.org/2000/svg" xmlns:xlink="http://www.w3.org/1999/xlink">
<polygon points="433.627,128.827 5.001,128.827 5.001,5.001 433.627,5.001" style="fill:none;stroke-width:0.050000mm;stroke:black"/>
<polygon points="386.726,112.851 386.726,127.051 390.026,127.051 390.026,112.851" style="fill:none;stroke-width:0.050000mm;stroke:black"/>
<polygon points="362.926,112.851 362.926,127.051 366.226,127.051 366.226,112.851" style="fill:none;stroke-width:0.050000mm;stroke:black"/>
<polygon points="184.319,112.851 184.319,127.051 187.619,127.051 187.619,112.851" style="fill:none;stroke-width:0.050000mm;stroke:black"/>
<polygon points="84.319,112.851 84.319,127.051 87.619,127.051 87.619,112.851" style="fill:none;stroke-width:0.050000mm;stroke:black"/>
<polygon points="398.051,112.301 398.051,126.301 412.051,126.301 412.051,112.301" style="fill:none;stroke-width:0.050000mm;stroke:black"/>
<polygon points="369.476,112.301 369.476,126.301 383.476,126.301 383.476,112.301" style="fill:none;stroke-width:0.050000mm;stroke:black"/>
<polygon points="336.138,112.301 336.138,126.301 350.138,126.301 350.138,112.301" style="fill:none;stroke-width:0.050000mm;stroke:black"/>
<polygon points="317.088,112.301 317.088,126.301 331.088,126.301 331.088,112.301" style="fill:none;stroke-width:0.050000mm;stroke:black"/>
<polygon points="298.038,112.301 298.038,126.301 312.038,126.301 312.038,112.301" style="fill:none;stroke-width:0.050000mm;stroke:black"/>
<polygon points="271.844,112.301 271.844,126.301 285.844,126.301 285.844,112.301" style="fill:none;stroke-width:0.050000mm;stroke:black"/>
<polygon points="248.032,112.301 248.032,126.301 262.032,126.301 262.032,112.301" style="fill:none;stroke-width:0.050000mm;stroke:black"/>
<polygon points="224.219,112.301 224.219,126.301 238.219,126.301 238.219,112.301" style="fill:none;stroke-width:0.050000mm;stroke:black"/>
<polygon points="200.407,112.301 200.407,126.301 214.407,126.301 214.407,112.301" style="fill:none;stroke-width:0.050000mm;stroke:black"/>
<polygon points="128.968,112.301 128.968,126.301 142.969,126.301 142.969,112.301" style="fill:none;stroke-width:0.050000mm;stroke:black"/>
<polygon points="57.532,112.301 57.532,126.301 71.532,126.301 71.532,112.301" style="fill:none;stroke-width:0.050000mm;stroke:black"/>
<polygon points="33.719,112.301 33.719,126.301 47.719,126.301 47.719,112.301" style="fill:none;stroke-width:0.050000mm;stroke:black"/>
<polygon points="9.907,112.301 9.907,126.301 23.907,126.301 23.907,112.301" style="fill:none;stroke-width:0.050000mm;stroke:black"/>
<polygon points="416.351,120.026 416.351,123.326 430.551,123.326 430.551,120.026" style="fill:none;stroke-width:0.050000mm;stroke:black"/>
<polygon points="417.101,102.776 417.101,116.776 431.101,116.776 431.101,102.776" style="fill:none;stroke-width:0.050000mm;stroke:black"/>
<polygon points="274.807,93.801 274.807,108.001 278.107,108.001 278.107,93.801" style="fill:none;stroke-width:0.050000mm;stroke:black"/>
<polygon points="251.007,93.801 251.007,108.001 254.307,108.001 254.307,93.801" style="fill:none;stroke-width:0.050000mm;stroke:black"/>
<polygon points="36.682,93.801 36.682,108.001 39.982,108.001 39.982,93.801" style="fill:none;stroke-width:0.050000mm;stroke:black"/>
<polygon points="12.882,93.801 12.882,108.001 16.182,108.001 16.182,93.801" style="fill:none;stroke-width:0.050000mm;stroke:black"/>
<polygon points="398.051,93.251 398.051,107.251 412.051,107.251 412.051,93.251" style="fill:none;stroke-width:0.050000mm;stroke:black"/>
<polygon points="379.001,93.251 379.001,107.251 393.001,107.251 393.001,93.251" style="fill:none;stroke-width:0.050000mm;stroke:black"/>
<polygon points="359.951,93.251 359.951,107.251 373.951,107.251 373.951,93.251" style="fill:none;stroke-width:0.050000mm;stroke:black"/>
<polygon points="336.138,93.251 336.138,107.251 350.138,107.251 350.138,93.251" style="fill:none;stroke-width:0.050000mm;stroke:black"/>
<polygon points="317.088,93.251 317.088,107.251 331.088,107.251 331.088,93.251" style="fill:none;stroke-width:0.050000mm;stroke:black"/>
<polygon points="298.038,93.251 298.038,107.251 312.038,107.251 312.038,93.251" style="fill:none;stroke-width:0.050000mm;stroke:black"/>
<polygon points="257.556,93.251 257.556,107.251 271.557,107.251 271.557,93.251" style="fill:none;stroke-width:0.050000mm;stroke:black"/>
<polygon points="221.838,93.251 221.838,107.251 235.838,107.251 235.838,93.251" style="fill:none;stroke-width:0.050000mm;stroke:black"/>
<polygon points="202.788,93.251 202.788,107.251 216.788,107.251 216.788,93.251" style="fill:none;stroke-width:0.050000mm;stroke:black"/>
<polygon points="183.738,93.251 183.738,107.251 197.738,107.251 197.738,93.251" style="fill:none;stroke-width:0.050000mm;stroke:black"/>
<polygon points="164.688,93.251 164.688,107.251 178.688,107.251 178.688,93.251" style="fill:none;stroke-width:0.050000mm;stroke:black"/>
<polygon points="145.638,93.251 145.638,107.251 159.638,107.251 159.638,93.251" style="fill:none;stroke-width:0.050000mm;stroke:black"/>
<polygon points="126.588,93.251 126.588,107.251 140.588,107.251 140.588,93.251" style="fill:none;stroke-width:0.050000mm;stroke:black"/>
<polygon points="107.538,93.251 107.538,107.251 121.538,107.251 121.538,93.251" style="fill:none;stroke-width:0.050000mm;stroke:black"/>
<polygon points="88.488,93.251 88.488,107.251 102.488,107.251 102.488,93.251" style="fill:none;stroke-width:0.050000mm;stroke:black"/>
<polygon points="69.438,93.251 69.438,107.251 83.438,107.251 83.438,93.251" style="fill:none;stroke-width:0.050000mm;stroke:black"/>
<polygon points="50.388,93.251 50.388,107.251 64.388,107.251 64.388,93.251" style="fill:none;stroke-width:0.050000mm;stroke:black"/>
<polygon points="19.432,93.251 19.432,107.251 33.432,107.251 33.432,93.251" style="fill:none;stroke-width:0.050000mm;stroke:black"/>
<polygon points="416.351,96.226 416.351,99.526 430.551,99.526 430.551,96.226" style="fill:none;stroke-width:0.050000mm;stroke:black"/>
<polygon points="279.569,74.751 279.569,88.951 282.869,88.951 282.869,74.751" style="fill:none;stroke-width:0.050000mm;stroke:black"/>
<polygon points="255.769,74.751 255.769,88.951 259.068,88.951 259.068,74.751" style="fill:none;stroke-width:0.050000mm;stroke:black"/>
<polygon points="417.101,74.201 417.101,88.201 431.101,88.201 431.101,74.201" style="fill:none;stroke-width:0.050000mm;stroke:black"/>
<polygon points="398.051,74.201 398.051,88.201 412.051,88.201 412.051,74.201" style="fill:none;stroke-width:0.050000mm;stroke:black"/>
<polygon points="379.001,74.201 379.001,88.201 393.001,88.201 393.001,74.201" style="fill:none;stroke-width:0.050000mm;stroke:black"/>
<polygon points="359.951,74.201 359.951,88.201 373.951,88.201 373.951,74.201" style="fill:none;stroke-width:0.050000mm;stroke:black"/>
<polygon points="336.138,74.201 336.138,88.201 350.138,88.201 350.138,74.201" style="fill:none;stroke-width:0.050000mm;stroke:black"/>
<polygon points="317.088,74.201 317.088,88.201 331.088,88.201 331.088,74.201" style="fill:none;stroke-width:0.050000mm;stroke:black"/>
<polygon points="298.038,74.201 298.038,88.201 312.038,88.201 312.038,74.201" style="fill:none;stroke-width:0.050000mm;stroke:black"/>
<polygon points="262.319,74.201 262.319,88.201 276.319,88.201 276.319,74.201" style="fill:none;stroke-width:0.050000mm;stroke:black"/>
<polygon points="231.363,74.201 231.363,88.201 245.363,88.201 245.363,74.201" style="fill:none;stroke-width:0.050000mm;stroke:black"/>
<polygon points="212.313,74.201 212.313,88.201 226.313,88.201 226.313,74.201" style="fill:none;stroke-width:0.050000mm;stroke:black"/>
<polygon points="193.263,74.201 193.263,88.201 207.263,88.201 207.263,74.201" style="fill:none;stroke-width:0.050000mm;stroke:black"/>
<polygon points="174.213,74.201 174.213,88.201 188.213,88.201 188.213,74.201" style="fill:none;stroke-width:0.050000mm;stroke:black"/>
<polygon points="155.163,74.201 155.163,88.201 169.163,88.201 169.163,74.201" style="fill:none;stroke-width:0.050000mm;stroke:black"/>
<polygon points="136.113,74.201 136.113,88.201 150.113,88.201 150.113,74.201" style="fill:none;stroke-width:0.050000mm;stroke:black"/>
<polygon points="117.063,74.201 117.063,88.201 131.063,88.201 131.063,74.201" style="fill:none;stroke-width:0.050000mm;stroke:black"/>
<polygon points="98.013,74.201 98.013,88.201 112.013,88.201 112.013,74.201" style="fill:none;stroke-width:0.050000mm;stroke:black"/>
<polygon points="78.963,74.201 78.963,88.201 92.963,88.201 92.963,74.201" style="fill:none;stroke-width:0.050000mm;stroke:black"/>
<polygon points="59.913,74.201 59.913,88.201 73.913,88.201 73.913,74.201" style="fill:none;stroke-width:0.050000mm;stroke:black"/>
<polygon points="40.863,74.201 40.863,88.201 54.863,88.201 54.863,74.201" style="fill:none;stroke-width:0.050000mm;stroke:black"/>
<polygon points="14.669,74.201 14.669,88.201 28.669,88.201 28.669,74.201" style="fill:none;stroke-width:0.050000mm;stroke:black"/>
<polygon points="417.101,55.151 417.101,69.151 431.101,69.151 431.101,55.151" style="fill:none;stroke-width:0.050000mm;stroke:black"/>
<polygon points="398.051,55.151 398.051,69.151 412.051,69.151 412.051,55.151" style="fill:none;stroke-width:0.050000mm;stroke:black"/>
<polygon points="379.001,55.151 379.001,69.151 393.001,69.151 393.001,55.151" style="fill:none;stroke-width:0.050000mm;stroke:black"/>
<polygon points="359.951,55.151 359.951,69.151 373.951,69.151 373.951,55.151" style="fill:none;stroke-width:0.050000mm;stroke:black"/>
<polygon points="336.138,55.151 336.138,69.151 350.138,69.151 350.138,55.151" style="fill:none;stroke-width:0.050000mm;stroke:black"/>
<polygon points="317.088,55.151 317.088,69.151 331.088,69.151 331.088,55.151" style="fill:none;stroke-width:0.050000mm;stroke:black"/>
<polygon points="298.038,55.151 298.038,69.151 312.038,69.151 312.038,55.151" style="fill:none;stroke-width:0.050000mm;stroke:black"/>
<polygon points="269.463,55.151 269.463,69.151 283.463,69.151 283.463,55.151" style="fill:none;stroke-width:0.050000mm;stroke:black"/>
<polygon points="245.651,55.151 245.651,69.151 259.650,69.151 259.650,55.151" style="fill:none;stroke-width:0.050000mm;stroke:black"/>
<polygon points="226.601,55.151 226.601,69.151 240.601,69.151 240.601,55.151" style="fill:none;stroke-width:0.050000mm;stroke:black"/>
<polygon points="207.551,55.151 207.551,69.151 221.551,69.151 221.551,55.151" style="fill:none;stroke-width:0.050000mm;stroke:black"/>
<polygon points="188.501,55.151 188.501,69.151 202.501,69.151 202.501,55.151" style="fill:none;stroke-width:0.050000mm;stroke:black"/>
<polygon points="169.451,55.151 169.451,69.151 183.451,69.151 183.451,55.151" style="fill:none;stroke-width:0.050000mm;stroke:black"/>
<polygon points="150.401,55.151 150.401,69.151 164.401,69.151 164.401,55.151" style="fill:none;stroke-width:0.050000mm;stroke:black"/>
<polygon points="131.351,55.151 131.351,69.151 145.351,69.151 145.351,55.151" style="fill:none;stroke-width:0.050000mm;stroke:black"/>
<polygon points="112.301,55.151 112.301,69.151 126.301,69.151 126.301,55.151" style="fill:none;stroke-width:0.050000mm;stroke:black"/>
<polygon points="93.251,55.151 93.251,69.151 107.251,69.151 107.251,55.151" style="fill:none;stroke-width:0.050000mm;stroke:black"/>
<polygon points="74.201,55.151 74.201,69.151 88.201,69.151 88.201,55.151" style="fill:none;stroke-width:0.050000mm;stroke:black"/>
<polygon points="55.151,55.151 55.151,69.151 69.151,69.151 69.151,55.151" style="fill:none;stroke-width:0.050000mm;stroke:black"/>
<polygon points="36.101,55.151 36.101,69.151 50.101,69.151 50.101,55.151" style="fill:none;stroke-width:0.050000mm;stroke:black"/>
<polygon points="12.288,55.151 12.288,69.151 26.288,69.151 26.288,55.151" style="fill:none;stroke-width:0.050000mm;stroke:black"/>
<polygon points="281.951,36.651 281.951,50.851 285.251,50.851 285.251,36.651" style="fill:none;stroke-width:0.050000mm;stroke:black"/>
<polygon points="258.150,36.651 258.150,50.851 261.451,50.851 261.451,36.651" style="fill:none;stroke-width:0.050000mm;stroke:black"/>
<polygon points="417.101,36.101 417.101,50.101 431.101,50.101 431.101,36.101" style="fill:none;stroke-width:0.050000mm;stroke:black"/>
<polygon points="398.051,36.101 398.051,50.101 412.051,50.101 412.051,36.101" style="fill:none;stroke-width:0.050000mm;stroke:black"/>
<polygon points="379.001,36.101 379.001,50.101 393.001,50.101 393.001,36.101" style="fill:none;stroke-width:0.050000mm;stroke:black"/>
<polygon points="359.951,36.101 359.951,50.101 373.951,50.101 373.951,36.101" style="fill:none;stroke-width:0.050000mm;stroke:black"/>
<polygon points="336.138,36.101 336.138,50.101 350.138,50.101 350.138,36.101" style="fill:none;stroke-width:0.050000mm;stroke:black"/>
<polygon points="317.088,36.101 317.088,50.101 331.088,50.101 331.088,36.101" style="fill:none;stroke-width:0.050000mm;stroke:black"/>
<polygon points="298.038,36.101 298.038,50.101 312.038,50.101 312.038,36.101" style="fill:none;stroke-width:0.050000mm;stroke:black"/>
<polygon points="264.701,36.101 264.701,50.101 278.701,50.101 278.701,36.101" style="fill:none;stroke-width:0.050000mm;stroke:black"/>
<polygon points="236.126,36.101 236.126,50.101 250.126,50.101 250.126,36.101" style="fill:none;stroke-width:0.050000mm;stroke:black"/>
<polygon points="217.076,36.101 217.076,50.101 231.076,50.101 231.076,36.101" style="fill:none;stroke-width:0.050000mm;stroke:black"/>
<polygon points="198.026,36.101 198.026,50.101 212.026,50.101 212.026,36.101" style="fill:none;stroke-width:0.050000mm;stroke:black"/>
<polygon points="178.976,36.101 178.976,50.101 192.976,50.101 192.976,36.101" style="fill:none;stroke-width:0.050000mm;stroke:black"/>
<polygon points="159.926,36.101 159.926,50.101 173.926,50.101 173.926,36.101" style="fill:none;stroke-width:0.050000mm;stroke:black"/>
<polygon points="140.876,36.101 140.876,50.101 154.876,50.101 154.876,36.101" style="fill:none;stroke-width:0.050000mm;stroke:black"/>
<polygon points="121.825,36.101 121.825,50.101 135.826,50.101 135.826,36.101" style="fill:none;stroke-width:0.050000mm;stroke:black"/>
<polygon points="102.775,36.101 102.775,50.101 116.775,50.101 116.775,36.101" style="fill:none;stroke-width:0.050000mm;stroke:black"/>
<polygon points="83.726,36.101 83.726,50.101 97.726,50.101 97.726,36.101" style="fill:none;stroke-width:0.050000mm;stroke:black"/>
<polygon points="64.676,36.101 64.676,50.101 78.676,50.101 78.676,36.101" style="fill:none;stroke-width:0.050000mm;stroke:black"/>
<polygon points="45.626,36.101 45.626,50.101 59.626,50.101 59.626,36.101" style="fill:none;stroke-width:0.050000mm;stroke:black"/>
<polygon points="26.576,36.101 26.576,50.101 40.576,50.101 40.576,36.101" style="fill:none;stroke-width:0.050000mm;stroke:black"/>
<polygon points="7.526,36.101 7.526,50.101 21.526,50.101 21.526,36.101" style="fill:none;stroke-width:0.050000mm;stroke:black"/>
<polygon points="336.138,7.526 336.138,21.526 350.138,21.526 350.138,7.526" style="fill:none;stroke-width:0.050000mm;stroke:black"/>
<polygon points="317.088,7.526 317.088,21.526 331.088,21.526 331.088,7.526" style="fill:none;stroke-width:0.050000mm;stroke:black"/>
<polygon points="298.038,7.526 298.038,21.526 312.038,21.526 312.038,7.526" style="fill:none;stroke-width:0.050000mm;stroke:black"/>
<polygon points="274.226,7.526 274.226,21.526 288.226,21.526 288.226,7.526" style="fill:none;stroke-width:0.050000mm;stroke:black"/>
<polygon points="255.176,7.526 255.176,21.526 269.176,21.526 269.176,7.526" style="fill:none;stroke-width:0.050000mm;stroke:black"/>
<polygon points="236.126,7.526 236.126,21.526 250.126,21.526 250.126,7.526" style="fill:none;stroke-width:0.050000mm;stroke:black"/>
<polygon points="217.076,7.526 217.076,21.526 231.076,21.526 231.076,7.526" style="fill:none;stroke-width:0.050000mm;stroke:black"/>
<polygon points="188.501,7.526 188.501,21.526 202.501,21.526 202.501,7.526" style="fill:none;stroke-width:0.050000mm;stroke:black"/>
<polygon points="169.451,7.526 169.451,21.526 183.451,21.526 183.451,7.526" style="fill:none;stroke-width:0.050000mm;stroke:black"/>
<polygon points="150.401,7.526 150.401,21.526 164.401,21.526 164.401,7.526" style="fill:none;stroke-width:0.050000mm;stroke:black"/>
<polygon points="131.351,7.526 131.351,21.526 145.351,21.526 145.351,7.526" style="fill:none;stroke-width:0.050000mm;stroke:black"/>
<polygon points="102.775,7.526 102.775,21.526 116.775,21.526 116.775,7.526" style="fill:none;stroke-width:0.050000mm;stroke:black"/>
<polygon points="83.726,7.526 83.726,21.526 97.726,21.526 97.726,7.526" style="fill:none;stroke-width:0.050000mm;stroke:black"/>
<polygon points="64.676,7.526 64.676,21.526 78.676,21.526 78.676,7.526" style="fill:none;stroke-width:0.050000mm;stroke:black"/>
<polygon points="45.626,7.526 45.626,21.526 59.626,21.526 59.626,7.526" style="fill:none;stroke-width:0.050000mm;stroke:black"/>
<polygon points="7.526,7.526 7.526,21.526 21.526,21.526 21.526,7.526" style="fill:none;stroke-width:0.050000mm;stroke:black"/>
</svg>